<svg xmlns="http://www.w3.org/2000/svg" width="130" height="28" viewBox="0 0 130 28">
  <!-- Icon: stylised C -->
  <path d="M14,4 C8.5,4 4,8.5 4,14 C4,19.5 8.5,24 14,24 C17.2,24 20,22.4 21.8,20 L18.6,18.2 C17.4,19.8 15.8,20.8 14,20.8 C10.4,20.8 7.5,17.8 7.5,14 C7.5,10.2 10.4,7.2 14,7.2 C15.8,7.2 17.4,8.2 18.6,9.8 L21.8,8 C20,5.6 17.2,4 14,4Z" fill="#e03c31"/>
  <path d="M20,12.5 L23.5,14 L20,15.5 L21.5,19 L18,17 L14.5,19 L16,15.5 L12.5,14 L16,12.5 L14.5,9 L18,11 L21.5,9Z" fill="#e03c31" opacity="0.0"/>
  <!-- Ciro text -->
  <text x="28" y="20" font-family="-apple-system, BlinkMacSystemFont, 'Segoe UI', Arial, sans-serif" font-size="15" font-weight="700" fill="#ffffff">Ciro</text>
  <!-- Stack text -->
  <text x="68" y="20" font-family="-apple-system, BlinkMacSystemFont, 'Segoe UI', Arial, sans-serif" font-size="15" font-weight="700" fill="#e03c31">Stack</text>
</svg>
